<svg id="Layer_2" data-name="Layer 2" xmlns="http://www.w3.org/2000/svg" viewBox="0 0 573.98 534.33"><defs><style>.cls-1{fill:#f7931e;opacity:0.5;}</style></defs><title>orangetop</title><path class="cls-1" d="M426.37,2104.09a69.78,69.78,0,0,0-32.61-5.6c-38.5,2.71-129.48,4-137.85-43.2-10.65-60-157.81-3.88-169.42-83.26s12.58-82.29-9.68-106.5-17.43,19.37-81.33-11.61-49.37-50.35-27.1-76.49,46.47-11.61,48.4-49.37-13.55-138.44,88.1-145.22,205.24-24.2,175.23,42.6,33.89,28.07,45.5,42.6-2.9,12.58,6.78,24.2,106.49-46.47,106.49,19.36-134.57,119.08-87.13,152,73.58,28.07,57.12,92,77.45,72.61,65.83,96.81-10.65,0,23.24,19.36,37.76,39.7-11.62,28.08-66.8-13.55-46.47,3.87C452.22,2114.29,438.79,2109.49,426.37,2104.09Z" transform="translate(50.56 -1575.67)"/><path class="cls-1" d="M-2,1792a554.73,554.73,0,0,0,85-12c44-10,54-29,54-29s-16,36-32,41,42-2,52,19-41,52,0,55,52-23,52-23,21-31,42-34c0,0-13,13-15,50s-28,38-38,61,53,2,63,35,13,68,13,68-14-14-71-35-69,18-80-52-30-108-76-105S-28,1823-2,1792Z" transform="translate(50.56 -1575.67)"/></svg>