<svg id="Layer_2" data-name="Layer 2" xmlns="http://www.w3.org/2000/svg" viewBox="0 0 1563.18 481.48"><defs><style>.cls-1{fill:#f15a24;}.cls-1,.cls-2{opacity:0.5;}.cls-2{fill:#f7931e;}</style></defs><title>orange_bottom</title><path class="cls-1" d="M98.15,2222a112.35,112.35,0,0,0,9.4,7.14c30.12,20.5,176.54,119.76,210.86,136,38.31,18.13-17.54-15.58-21.81-46.78s139.72,90,196,106.55,50.1,54.08,93.43,70.91c16.25,6.31,98.18,23.67,97.17,27.29-1.68,6-98.13-4.64-118.66-10.76-32.84-9.79-69.5-54.56-128.36-63.71S371.1,2470.93,286.58,2413c-85.23-58.41-152.34-53.25-174.65-82.83,0,0,88.29,20.45,86.92,18.36s-114.28-33.22-153.6-109C9.09,2169.88,81.92,2208.32,98.15,2222Z" transform="translate(111.18 -2110)"/><path class="cls-1" d="M-87.14,2291.06s72.74,48.46,113,77.49,61.69,25.21,68.65,34c0,0-25.94-24.47-32-33.09,0,0,77.72,30.75,104.34,56.72s96.15,38.79,111.71,47c0,0-67.27,1.34-104.35-13.38s-115-38.65-160.28-50-103.79-49.06-116.22-69.8S-117.73,2287.78-87.14,2291.06Z" transform="translate(111.18 -2110)"/><path class="cls-2" d="M619.22,2326.65c51.93,43.77,102.35-10,112.16,20s37.85,36,42.06,0-71.5-76.07,0-122.12c0,0,7-134.13,78.51-112.11s-8.41,118.12,35,128.13,64.49-102.1,110.76,0,106.55,92.09,67.29,130.13c0,0,42.06,44,61.69,22s-35-62.06,40.66-86.09c0,0-25.24-76.07,30.84-52.05s26.64,60.06,64.49,74.08c0,0,7-46,42.06-12s9.82,58.06,37.86,54.06,74.3-72.07,109.35-72.07v216.21s-92.53-10-154.22,0-151.41,10-116.36,22,64.49-10,84.12,0c0,0-15.43,46-134.59,22s-98.14-52.05-159.83-38-98.14,84.08-231.33,44-196.28-36-255.16-46-116.36-34-162.63-16c0,0,57.48-48,140.2-12s71.5-26,71.5-26-56.08-32-9.81-60.06S533.7,2254.58,619.22,2326.65Z" transform="translate(111.18 -2110)"/><path class="cls-1" d="M1203.38,2504.26c8.95-4.49,14.37-13.71,12.63-23.42-2.23-12.47-10.42-26.54-34.89-31-47-8.62,5.82.25-19.24-23.07s-24.25-69.08-65.67-53.31-80.13-10.85-85.11,34.65-42,5.33-46.84,59-82.81,54.05-108.33,24.13-27.48-1-49.21-19.6,41.91-77.82-44-75.64-34.46,41.73-54.21,39.75-.48,7.24-46.81,8.52-86.38-13.38-86.38-13.38,14.95,19,83.12,26.63,9,33.4,55.27,45.95c0,0-38.31-1.32-54.24-5.86,0,0,47.3,20.87,81.55,21.45s-19.1,12.79,61.37,21.82,69.57-9.24,156.13,12.31,4.7,15.52,95.08,34.52,79.39-40,103.72-35.56,21.64,14.55,37.66-13.46,51.26,17.53,84-5.79.71-26.74,45.52-38.07c0,0-28.57.46-38.32,12.52s-18.46,27.56-62.42,11.37C1200.91,2510.27,1199.49,2506.21,1203.38,2504.26Z" transform="translate(111.18 -2110)"/><path class="cls-1" d="M779,2328s-65-10-60-39,7-45,18-30,23,20,23,9,12-11,33-9,26,34,50,44c0,0-29,10-56,6S808,2327,779,2328Z" transform="translate(111.18 -2110)"/></svg>