<svg id="Layer_2" data-name="Layer 2" xmlns="http://www.w3.org/2000/svg" viewBox="0 0 1297 721.26"><defs><style>.cls-1{fill:#c6f;}.cls-1,.cls-2,.cls-3{opacity:0.5;}.cls-2{fill:#ccf;}.cls-3{fill:#fcf;}</style></defs><title>purpleback</title><path class="cls-1" d="M1375,63s-21,29-39,53a136.49,136.49,0,0,1-41,36s60-15,74-41S1375,63,1375,63Z" transform="translate(-138 105.24)"/><path class="cls-1" d="M1388,141s-89,46-101,68-48,39-90,60-49,30-68,28c0,0,39,22,104-28s78,6,119-30S1388,141,1388,141Z" transform="translate(-138 105.24)"/><path class="cls-1" d="M1176,3s-25,28-52,57,4,25.36-46.5,51.68S1030,157,999,176c0,0,21.62-50.19,36.81-68.1S1051,65,1051,65s-56,72-78,87-27.07,53-77,81-134,76-162,87c0,0,117-3,176-24,57.5-20.47,134-27,153-65s98-70,102-90,78-12,113-87,48-125,33-105S1253,84,1198,95c0,0,49-40,59-116s29.92-103.89,2-70C1186.54-3.06,1130.42,48.11,1176,3Z" transform="translate(-138 105.24)"/><path class="cls-2" d="M986.41,116.9c-.93-.49-1.83-1-2.73-1.58-12.4-7.5-113.27-66.84-167.29-43.88-57.62,24.49-139.74,14.4-154.14,44.65s51.86,15.85,82.11,30.26-8.64,14.4-15.85,27.37,4.33,18.73-5.76,28.81,11.53,51.86-47.54,21.61-116.68-57.62-144.05-38.9,11.52,13-17.29,23-100.84,13-138.3,57.63,49,83.55,0,74.91-98-40.34-152.7-34.58,8.64,8.65,15.85,14.41-82.12,4.32-99.4,21.61,141.17-14.41,149.82,25.93,77.79,11.52,63.38,40.33-40.33,0-23,31.7,134-41.78,139.74,0,25.93,15.84,25.93,34.57,151.26,0,171.43,10.08,134,34.58,152.7,11.53,59.07-38.9,96.52-47.54,38.9,34.57,96.52,23.05,90.76,56.18,28.81,60.5-108,4.32-99.4,18.73-30.25,18.73-49,24.49,1.44,15.85,37.46,11.53,108,10.08,79.23,10.08-23,17.29,0,18.73,47.54-33.14,85-23.05,49-63.39,112.37-60.51,85-57.62,110.92-60.5,44.66-36-23-34.58-61.94-20.16-8.64-28.81,125.33-74.91,100.84-67.7-72,21.6-72,13,83.56-4.32,102.28-54.74,37.46-82.11-25.93-47.54-50.42-64.83-121-83.55-95.08-59.07-36-70.59,33.13-40.34-14.41-23.05-98,66.26-136.85,40.33-73.47-13-53.3,4.33C1049.34,135.9,1009.71,129.35,986.41,116.9Z" transform="translate(-138 105.24)"/><path class="cls-3" d="M925.92,250.91c53-15.53,124.46-40.81,90.15-44.24s11.63-18.6,47.73-21.63-1.29,34.91,48.77,20,111.82-11.82,53.9,9.77S1138.29,258,1040.24,257,925.92,250.91,925.92,250.91Z" transform="translate(-138 105.24)"/></svg>