<svg id="Layer_2" data-name="Layer 2" xmlns="http://www.w3.org/2000/svg" viewBox="0 0 952.01 367.79"><defs><style>.cls-1{fill:#fcf;opacity:0.5;}</style></defs><title>purplefront</title><path class="cls-1" d="M1143.84,453.6c9-9.69,11.47-23.75,4.94-35.16-8.4-14.65-24.86-28.62-57-23.16-61.84,10.5,7.28-2.32-34.16-20.26S996.4,299.2,952.51,337.81s-103.63,22.69-89.15,82.13-49.38,25.76-31,95.4-77.53,105.47-122.54,79.44-34.29,11.26-69.5-2.31,16.36-116.8-88.45-75.12-23.54,68.07-48.77,74.53,2.68,9.32-53.82,31.94-112.48,22.36-112.48,22.36,27,17.13,114.46-4.23,26.19,37.9,88.92,32.68c0,0-47.79,15.72-69.47,17.23,0,0,67.73,4.78,110.19-10s-17.74,24.73,85.49-.4S748,638.27,864.36,626.1s12.82,17.37,132.78.26,79.68-86.29,111.67-91.72,33.25,8.47,40.3-34,71.1-1.22,100.9-45.37-11.25-33.93,38.83-68.49c0,0-35,13.54-41.55,33.11s-10.24,43-71.75,42.59C1143.51,462.28,1139.92,457.82,1143.84,453.6Z" transform="translate(-336.83 -324.8)"/><path class="cls-1" d="M961.08,342.11c-1.17,16.34,30.34,12.84,24.51,29.18S958.74,384.13,955.24,397s-33.85,35-49,38.52c0,0,73.53,1.16,85.2-17.51s35,5.84,30.35,17.51-22.18,9.33-5.84,11.67,70-24.51,56-8.17-36.18,28-36.18,28,71.2-4.67,77-31.51,19.28-38.52-9-30.93-65.66,6.42-64.5.58,31.52-9.34,14-17.51-59.52-28-63-45.52S961.08,342.11,961.08,342.11Z" transform="translate(-336.83 -324.8)"/></svg>