<svg id="Layer_2" data-name="Layer 2" xmlns="http://www.w3.org/2000/svg" viewBox="0 0 1472.08 706.17"><defs><style>.cls-1{fill:#fff;opacity:0.5;}</style></defs><title>whiteback</title><path class="cls-1" d="M978,1083c39.65-60.11,145,2,168,28s76-24,143,0,155,1,128,36-107,24-80,57-24,14-149-19-66-83-163-78-174,0-189-24S947,1130,978,1083Z" transform="translate(50.08 -1057.62)"/><path class="cls-1" d="M133,1729s18,1,70,0,61-52,107-63,49-59,20-57-31-22,29-24,194-18,212,0,61-26,37-26-88-39-21-28,96,12,137-31,25-28-18-28,8-8-8-26-18,22-57,22-22-55-111-55-109-81-155-22-144,122-124,72-31-32-32-6,34,28-27,63-88,62-70,94-48.62,49.86-38.31,99.93S111,1729,133,1729Z" transform="translate(50.08 -1057.62)"/><path class="cls-1" d="M-34,1232c55.06-22.67,100-9,132,42s95,17,107,51,42,32,32,44,15,52-46,22-14,31-74,31-112,92-135,0S-68,1246-34,1232Z" transform="translate(50.08 -1057.62)"/><path class="cls-1" d="M912.62,1433.48s68-24.52,90.55-57.88,6.59-21.85-19.57-14.26c0,0-.14-14,25-29.24s17-50.84,9.35-33.44,6.75-31.28-21.06-27.48-39.26-5.56-27.24,6.27,5,15,9.46,34.33,14.35,11.82-1.25,31.57,14.81,20.58-21.12,42.94-47.68,8.37-58.75,27.61,34.84,6.57-31.79,30.27-61.1,14.07-61.1,14.07S805.3,1479.07,912.62,1433.48Z" transform="translate(50.08 -1057.62)"/><path class="cls-1" d="M261,1762c73.6-24,172.74-61.9,124.77-63.48s15.79-24.54,66.09-31.32-1,44.41,68.54,21.38,155.78-24.08,75.46,8-38.31,57.19-175.18,63.78S261,1762,261,1762Z" transform="translate(50.08 -1057.62)"/><path class="cls-1" d="M224.84,1531c-6.21,26.88,15.89,19.84,59.75-11.26s55.69,14.08,99.22-18.71,125.27-79.82,67.55-63.67,2.23,11.88,29.61-53.87,32.78-130.87,7.49-89.22-61.78,41.5-78,72.66-24,66-75.06,76.49c0,0-8.32-26.53-27.63-17.62s3,15.48-17.77,31.57S234,1491.48,224.84,1531Z" transform="translate(50.08 -1057.62)"/><path class="cls-1" d="M-13,1247s46-13,65,13,45-20,92-8c0,0-46,16-46,19s8,23-15,27,3,12-46,18-65-30-65-30Z" transform="translate(50.08 -1057.62)"/></svg>